<svg width="16" height="20" viewBox="0 0 16 20" fill="none" xmlns="http://www.w3.org/2000/svg">
<path d="M6.6844 20C5.762 19.9955 5.01407 19.2508 5.00495 18.3277H8.34715C8.34892 18.5513 8.30632 18.773 8.22182 18.9799C8.00262 19.4833 7.55489 19.8504 7.01862 19.9666H7.01445H7.00191H6.98687H6.97935C6.88228 19.9868 6.78354 19.998 6.6844 20ZM13.3688 17.4916H0V15.8194L1.6711 14.9832V10.3845C1.62708 9.20486 1.8933 8.03429 2.44315 6.98986C2.99047 6.02122 3.926 5.33339 5.0133 5.10022V3.27746H8.3555V5.10022C10.5104 5.6136 11.6977 7.48987 11.6977 10.3845V14.9832L13.3688 15.8194V17.4916Z" fill="#A6ABC8"/>
<path d="M11.4888 8.87095C13.551 8.87095 15.2221 7.19813 15.2221 5.13548C15.2221 3.07282 13.551 1.4 11.4888 1.4C9.42654 1.4 7.75547 3.07282 7.75547 5.13548C7.75547 7.19813 9.42654 8.87095 11.4888 8.87095Z" fill="#EC5252" stroke="white" stroke-width="1.2"/>
</svg>
