<?xml version="1.0"?>
<svg width="18" height="18" xmlns="http://www.w3.org/2000/svg" xmlns:svg="http://www.w3.org/2000/svg">
 <g class="layer">
  <title>Layer 1</title>
  <path d="m9.5,10.69l0,5.81l-7.5,0c0,-0.92 0.21,-1.82 0.61,-2.64c0.41,-0.82 0.99,-1.54 1.72,-2.1c0.72,-0.57 1.56,-0.95 2.46,-1.14c0.9,-0.18 1.82,-0.16 2.71,0.07zm-1.5,-0.94c-2.49,0 -4.5,-2.01 -4.5,-4.5c0,-2.49 2.01,-4.5 4.5,-4.5c2.49,0 4.5,2.01 4.5,4.5c0,2.49 -2.01,4.5 -4.5,4.5zm4.5,3l0,-2.25l1.5,0l0,2.25l2.25,0l0,1.5l-2.25,0l0,2.25l-1.5,0l0,-2.25l-2.25,0l0,-1.5l2.25,0z" fill="#a6abc8" id="svg_1" stroke="#a6abc8"/>
 </g>
</svg>