<?xml version="1.0"?>
<svg width="24" height="24" xmlns="http://www.w3.org/2000/svg" xmlns:svg="http://www.w3.org/2000/svg">
 <g class="layer">
  <title>Layer 1</title>
  <path clip-rule="evenodd" d="m2,12c0,1.64 0.42,2.19 1.27,3.3c1.7,2.2 4.55,4.7 8.73,4.7c4.18,0 7.03,-2.5 8.73,-4.7c0.84,-1.11 1.27,-1.66 1.27,-3.3c0,-1.64 -0.43,-2.19 -1.27,-3.3c-1.7,-2.2 -4.55,-4.7 -8.73,-4.7c-4.18,0 -7.03,2.5 -8.72,4.7c-0.86,1.11 -1.28,1.66 -1.28,3.3zm10,-3.75c-0.99,0 -1.95,0.4 -2.65,1.1c-0.7,0.7 -1.1,1.66 -1.1,2.65c0,0.99 0.4,1.95 1.1,2.65c0.7,0.7 1.66,1.1 2.65,1.1c0.99,0 1.95,-0.4 2.65,-1.1c0.7,-0.7 1.1,-1.66 1.1,-2.65c0,-0.99 -0.4,-1.95 -1.1,-2.65c-0.7,-0.7 -1.66,-1.1 -2.65,-1.1z" fill="#727383" fill-rule="evenodd" id="svg_2" transform="matrix(1 0 0 1 0 0)"/>
  <line fill="none" id="svg_16" stroke="#727383" x1="0" x2="23.25" y1="0" y2="23.75"/>
  <path d="m9.75,12c0,-0.6 0.24,-1.17 0.66,-1.59c0.42,-0.42 0.99,-0.66 1.59,-0.66c0.6,0 1.17,0.24 1.59,0.66c0.42,0.42 0.66,0.99 0.66,1.59c0,0.6 -0.24,1.17 -0.66,1.59c-0.42,0.42 -0.99,0.66 -1.59,0.66c-0.6,0 -1.17,-0.24 -1.59,-0.66c-0.42,-0.42 -0.66,-0.99 -0.66,-1.59z" fill="#727383" id="svg_1"/>
 </g>
</svg>