<svg width="30" height="30" viewBox="0 0 30 30" fill="none" xmlns="http://www.w3.org/2000/svg">
<path d="M17.5 13.75C17.5 14.4375 16.9375 15 16.25 15H5C4.3125 15 3.75 14.4375 3.75 13.75C3.75 13.0625 4.3125 12.5 5 12.5H16.25C16.9375 12.5 17.5 13.0625 17.5 13.75ZM3.75 8.75C3.75 9.4375 4.3125 10 5 10H16.25C16.9375 10 17.5 9.4375 17.5 8.75C17.5 8.0625 16.9375 7.5 16.25 7.5H5C4.3125 7.5 3.75 8.0625 3.75 8.75ZM12.5 18.75C12.5 18.0625 11.9375 17.5 11.25 17.5H5C4.3125 17.5 3.75 18.0625 3.75 18.75C3.75 19.4375 4.3125 20 5 20H11.25C11.9375 20 12.5 19.4375 12.5 18.75ZM22.5125 16.0875L23.4 15.2C23.5156 15.0841 23.653 14.9922 23.8042 14.9295C23.9554 14.8667 24.1175 14.8344 24.2812 14.8344C24.445 14.8344 24.6071 14.8667 24.7583 14.9295C24.9095 14.9922 25.0469 15.0841 25.1625 15.2L26.05 16.0875C26.5375 16.575 26.5375 17.3625 26.05 17.85L25.1625 18.7375L22.5125 16.0875ZM21.625 16.975L15.175 23.425C15.0625 23.5375 15 23.6875 15 23.8625V25.625C15 25.975 15.275 26.25 15.625 26.25H17.3875C17.55 26.25 17.7125 26.1875 17.825 26.0625L24.275 19.6125L21.625 16.975Z" fill="#06C270"/>
</svg>
