<svg width="24" height="20" viewBox="0 0 24 20" fill="none" xmlns="http://www.w3.org/2000/svg">
<path d="M14.5 6.75C14.5 7.4375 13.9375 8 13.25 8H2C1.3125 8 0.75 7.4375 0.75 6.75C0.75 6.0625 1.3125 5.5 2 5.5H13.25C13.9375 5.5 14.5 6.0625 14.5 6.75ZM0.75 1.75C0.75 2.4375 1.3125 3 2 3H13.25C13.9375 3 14.5 2.4375 14.5 1.75C14.5 1.0625 13.9375 0.5 13.25 0.5H2C1.3125 0.5 0.75 1.0625 0.75 1.75ZM9.5 11.75C9.5 11.0625 8.9375 10.5 8.25 10.5H2C1.3125 10.5 0.75 11.0625 0.75 11.75C0.75 12.4375 1.3125 13 2 13H8.25C8.9375 13 9.5 12.4375 9.5 11.75ZM19.5125 9.0875L20.4 8.2C20.5156 8.08412 20.653 7.99219 20.8042 7.92946C20.9554 7.86673 21.1175 7.83444 21.2812 7.83444C21.445 7.83444 21.6071 7.86673 21.7583 7.92946C21.9095 7.99219 22.0469 8.08412 22.1625 8.2L23.05 9.0875C23.5375 9.575 23.5375 10.3625 23.05 10.85L22.1625 11.7375L19.5125 9.0875ZM18.625 9.975L12.175 16.425C12.0625 16.5375 12 16.6875 12 16.8625V18.625C12 18.975 12.275 19.25 12.625 19.25H14.3875C14.55 19.25 14.7125 19.1875 14.825 19.0625L21.275 12.6125L18.625 9.975Z" fill="#06C270"/>
</svg>
