<svg width="329" height="37" viewBox="0 0 329 37" fill="none" xmlns="http://www.w3.org/2000/svg">
<g clip-path="url(#clip0_302_301)">
<mask id="mask0_302_301" style="mask-type:luminance" maskUnits="userSpaceOnUse" x="307" y="9" width="22" height="21">
<path d="M318 28.6667C319.204 28.6682 320.397 28.4318 321.509 27.9711C322.621 27.5103 323.632 26.8342 324.482 25.9817C325.334 25.1315 326.01 24.1212 326.471 23.0088C326.932 21.8965 327.168 20.704 327.167 19.5C327.168 18.296 326.932 17.1035 326.471 15.9912C326.01 14.8788 325.334 13.8685 324.482 13.0182C323.632 12.1658 322.621 11.4897 321.509 11.0289C320.397 10.5682 319.204 10.3318 318 10.3333C316.796 10.3318 315.604 10.5682 314.491 11.029C313.379 11.4897 312.369 12.1658 311.518 13.0182C310.666 13.8685 309.99 14.8788 309.529 15.9912C309.068 17.1035 308.832 18.296 308.834 19.5C308.832 20.704 309.068 21.8965 309.529 23.0088C309.99 24.1212 310.666 25.1315 311.518 25.9817C312.369 26.8342 313.379 27.5103 314.491 27.971C315.604 28.4318 316.796 28.6682 318 28.6667Z" fill="white" stroke="white" stroke-width="2" stroke-linejoin="round"/>
<path d="M314.333 19.5L317.083 22.25L322.583 16.75" stroke="black" stroke-width="2" stroke-linecap="round" stroke-linejoin="round"/>
</mask>
<g mask="url(#mask0_302_301)">
<path d="M307 8.5H329V30.5H307V8.5Z" fill="#4CAF50"/>
</g>
<rect y="0.5" width="1" height="36" fill="#D9D9D9"/>
</g>
<defs>
<clipPath id="clip0_302_301">
<rect width="329" height="36" fill="white" transform="translate(0 0.5)"/>
</clipPath>
</defs>
</svg>
