<svg width="1176" height="2381" viewBox="0 0 1176 2381" fill="none" xmlns="http://www.w3.org/2000/svg">
<g clip-path="url(#clip0_302_103)">
<g opacity="0.1">
<path opacity="0.54" d="M-458.862 1440.3C-454.02 1360.52 -374.333 1285.6 -301.066 1269.39C-227.778 1253.15 -161.991 1280.59 -103.966 1313.51C-45.9182 1346.39 10.0937 1385.7 78.8433 1395.03C221.144 1414.3 377.719 1303.24 513.458 1194.86C649.197 1086.49 798.771 968.193 946.056 968.928C1061.53 969.524 1149.47 1044.28 1252.88 1080.32C1433.4 1143.24 1669.28 1078.51 1847.38 917.106" stroke="url(#paint0_linear_302_103)" stroke-width="1.56225" stroke-miterlimit="10"/>
<path opacity="0.54" d="M-464.601 1462.13C-459.826 1382.45 -380.732 1307.41 -307.593 1290.4C-301.056 1288.86 -294.566 1287.73 -288.133 1286.84C-222.663 1278.16 -163.176 1302.63 -110.043 1331.74C-99.7818 1337.36 -89.5802 1343.18 -79.3786 1348.99C-31.4903 1376.33 16.7934 1403.74 73.4974 1411.06C91.8664 1413.45 110.505 1413.66 129.286 1412C255.982 1400.88 389.577 1304.24 507.188 1209.12C515.732 1202.2 524.323 1195.26 532.962 1188.3C660.859 1085.3 798.752 982.117 936.077 977.004C975.351 975.549 1012.27 981.218 1047.75 993.137C1089.65 1007.19 1128.73 1029.44 1167.4 1050.75C1193.81 1065.3 1220.19 1079.45 1247.89 1090.72C1260.92 1096.03 1274.28 1100.64 1287.99 1104.53C1375.25 1129.32 1475.97 1123.94 1574.89 1092.41C1674.05 1060.79 1771.46 1003.44 1856.13 925.599" stroke="url(#paint1_linear_302_103)" stroke-width="1.56225" stroke-miterlimit="10"/>
<path opacity="0.54" d="M-470.342 1483.96C-465.637 1404.33 -387.158 1329.22 -314.146 1311.4C-307.613 1309.81 -301.13 1308.57 -294.7 1307.64C-229.302 1298.23 -169.586 1321.75 -116.096 1350C-105.772 1355.47 -95.5323 1361.12 -85.2676 1366.78C-37.111 1393.38 11.4254 1420.19 68.1536 1427.15C86.538 1429.4 105.173 1429.57 123.973 1427.82C250.779 1416.15 383.968 1319.29 500.946 1223.45C509.438 1216.49 518.001 1209.49 526.563 1202.48C653.626 1098.68 789.544 995.907 926.155 985.221C966.073 982.081 1004.27 984.902 1041.09 996.134C1084.62 1009.4 1124.57 1033.34 1163.11 1056.68C1189.42 1072.6 1215.42 1088.37 1242.91 1101.19C1255.86 1107.21 1269.12 1112.53 1282.88 1117.07C1370.37 1146 1474.66 1141.52 1576.48 1108.52C1678.52 1075.47 1778.23 1014.85 1864.87 934.047" stroke="url(#paint2_linear_302_103)" stroke-width="1.56225" stroke-miterlimit="10"/>
<path opacity="0.54" d="M-476.11 1505.77C-471.471 1426.24 -393.61 1351 -320.722 1332.43C-314.218 1330.77 -307.742 1329.43 -301.315 1328.45C-235.942 1318.3 -176.023 1340.86 -122.198 1368.27C-111.836 1373.57 -101.486 1379.05 -91.1834 1384.55C-42.7586 1410.42 6.0051 1436.61 62.7829 1443.21C81.1607 1445.37 99.789 1445.43 118.586 1443.64C245.453 1431.43 378.263 1334.36 494.629 1237.78C503.092 1230.76 511.578 1223.7 520.09 1216.65C646.34 1112.02 780.376 1009.58 916.155 993.383C956.765 988.543 996.163 988.564 1034.36 999.127C1079.55 1011.58 1120.34 1037.24 1158.73 1062.64C1184.95 1079.95 1210.53 1097.35 1237.82 1111.68C1250.65 1118.43 1263.89 1124.46 1277.66 1129.63C1365.38 1162.71 1473.23 1159.17 1577.95 1124.69C1682.9 1090.17 1784.88 1026.32 1873.52 942.574" stroke="url(#paint3_linear_302_103)" stroke-width="1.56225" stroke-miterlimit="10"/>
<path opacity="0.54" d="M-481.871 1527.63C-477.276 1448.17 -400.031 1372.85 -327.296 1353.46C-320.773 1351.72 -314.347 1350.35 -307.927 1349.26C-242.605 1338.36 -182.479 1359.99 -128.319 1386.57C-117.871 1391.69 -107.506 1397.04 -97.1147 1402.41C-48.4217 1427.54 0.617046 1453.1 57.4225 1459.38C75.8156 1461.4 94.4406 1461.42 113.231 1459.52C240.185 1446.79 372.586 1349.45 488.37 1252.2C496.783 1245.13 505.239 1238.01 513.696 1230.88C639.112 1125.45 771.396 1023.08 906.213 1001.63C947.511 995.039 988.164 992.295 1027.69 1002.21C1074.55 1013.86 1116.17 1041.22 1154.42 1068.65C1180.52 1087.37 1205.74 1106.35 1232.84 1122.23C1245.57 1129.69 1258.79 1136.42 1272.58 1142.29C1360.5 1179.54 1471.95 1176.86 1579.56 1140.95C1687.38 1105 1791.66 1037.87 1882.3 951.187" stroke="url(#paint4_linear_302_103)" stroke-width="1.56225" stroke-miterlimit="10"/>
<path opacity="0.54" d="M-487.612 1549.46C-483.11 1470.08 -406.435 1394.63 -333.849 1374.46C-327.355 1372.65 -320.911 1371.19 -314.495 1370.05C-249.223 1358.4 -188.89 1379.12 -134.373 1404.83C-123.862 1409.79 -113.433 1414.99 -103.005 1420.19C-54.0433 1444.59 -4.75178 1469.55 52.0778 1475.47C70.4642 1477.39 89.0824 1477.3 107.917 1475.34C234.981 1462.06 366.954 1364.53 482.127 1266.53C490.51 1259.4 498.868 1252.25 507.296 1245.06C631.878 1138.83 762.495 1036.36 896.286 1009.8C938.346 1001.46 980.133 995.961 1021.02 1005.15C1069.52 1016.02 1112.01 1045.08 1150.15 1074.54C1176.17 1094.65 1201.01 1115.26 1227.88 1132.66C1240.53 1140.84 1253.65 1148.27 1267.48 1154.79C1355.63 1196.19 1470.63 1194.45 1581.14 1157.07C1691.85 1119.62 1798.42 1049.27 1891.07 959.652" stroke="url(#paint5_linear_302_103)" stroke-width="1.56225" stroke-miterlimit="10"/>
<path opacity="0.54" d="M-493.352 1571.29C-488.894 1491.98 -412.86 1416.43 -340.376 1395.47C-333.911 1393.59 -327.448 1392.06 -321.06 1390.85C-255.836 1378.49 -195.277 1398.2 -140.473 1423.1C-129.899 1427.92 -119.41 1432.92 -108.918 1437.97C-59.7108 1461.66 -10.1699 1485.97 46.7094 1491.54C65.1113 1493.32 83.7483 1493.15 102.554 1491.12C229.706 1477.33 361.295 1379.54 475.834 1280.82C484.167 1273.66 492.496 1266.45 500.847 1259.2C624.594 1152.18 753.655 1049.43 886.288 1017.96C929.107 1007.82 972.054 999.591 1014.29 1008.15C1064.44 1018.2 1107.78 1048.98 1145.77 1080.5C1171.69 1101.98 1196.14 1124.21 1222.79 1143.15C1235.33 1152.07 1248.42 1160.2 1262.3 1167.38C1350.68 1212.91 1469.25 1212.08 1582.64 1173.26C1696.23 1134.38 1805.1 1060.76 1899.74 968.197" stroke="url(#paint6_linear_302_103)" stroke-width="1.56225" stroke-miterlimit="10"/>
<path opacity="0.54" d="M-499.118 1593.1C-494.752 1513.87 -419.286 1438.23 -346.977 1416.48C-340.515 1414.56 -334.081 1412.95 -327.674 1411.66C-262.5 1398.55 -201.734 1417.34 -146.573 1441.37C-135.962 1446.02 -125.384 1450.89 -114.855 1455.77C-65.3536 1478.75 -15.5632 1502.41 41.3181 1507.64C59.7132 1509.32 78.3691 1509.07 97.168 1506.94C224.407 1492.62 355.591 1394.62 469.519 1295.15C477.797 1287.91 486.075 1280.66 494.375 1273.38C617.288 1165.55 744.827 1062.32 876.29 1026.12C919.911 1014.11 963.951 1003.25 1007.58 1011.11C1059.39 1020.34 1103.57 1052.84 1141.43 1086.39C1167.27 1109.26 1191.32 1133.1 1217.78 1153.59C1230.24 1163.23 1243.23 1172.07 1257.15 1179.89C1345.74 1229.61 1467.89 1229.67 1584.19 1189.39C1700.68 1149.03 1811.82 1072.18 1908.44 976.658" stroke="url(#paint7_linear_302_103)" stroke-width="1.56225" stroke-miterlimit="10"/>
<path opacity="0.54" d="M-504.878 1614.96C-500.579 1535.83 -425.732 1460.06 -353.524 1437.53C-347.069 1435.5 -340.638 1433.84 -334.26 1432.49C-269.112 1418.64 -208.167 1436.44 -152.646 1459.66C-141.949 1464.12 -131.334 1468.82 -120.741 1473.55C-70.9719 1495.8 -20.9288 1518.86 35.9767 1523.72C54.3907 1525.32 73.0143 1524.95 91.8354 1522.79C219.158 1507.91 349.963 1409.69 463.257 1309.52C471.484 1302.23 479.733 1294.92 487.979 1287.55C610.031 1178.91 736.115 1075.09 866.344 1034.32C910.79 1020.41 955.949 1006.93 1000.88 1014.12C1054.31 1022.57 1099.37 1056.76 1137.09 1092.34C1162.83 1116.58 1186.48 1142.06 1212.72 1164.1C1225.08 1174.44 1238.03 1184.01 1251.97 1192.48C1340.78 1246.33 1466.48 1247.28 1585.69 1205.58C1705.06 1163.79 1818.52 1083.63 1917.12 985.203" stroke="url(#paint8_linear_302_103)" stroke-width="1.56225" stroke-miterlimit="10"/>
<path opacity="0.54" d="M-510.623 1636.79C-506.394 1557.71 -432.136 1481.89 -360.081 1458.53C-353.629 1456.45 -347.205 1454.69 -340.857 1453.27C-275.78 1438.7 -214.607 1455.55 -158.751 1477.93C-147.991 1482.25 -137.312 1486.8 -126.656 1491.38C-76.6188 1512.89 -26.3486 1535.33 30.6066 1539.84C49.036 1541.31 67.6563 1540.89 86.4707 1538.63C213.881 1523.23 344.28 1424.79 456.988 1323.88C465.164 1316.57 473.359 1309.17 481.553 1301.77C602.771 1192.33 727.435 1087.7 856.37 1042.55C901.638 1026.7 947.893 1010.64 994.193 1017.15C1049.28 1024.79 1095.2 1060.66 1132.8 1098.32C1158.44 1123.98 1181.7 1151.04 1207.76 1174.63C1220 1185.7 1232.92 1195.98 1246.9 1205.1C1335.92 1263.13 1465.19 1264.99 1587.31 1221.81C1709.56 1178.59 1825.34 1095.17 1925.91 993.788" stroke="url(#paint9_linear_302_103)" stroke-width="1.56225" stroke-miterlimit="10"/>
<path opacity="0.54" d="M-516.362 1658.62C-512.199 1579.64 -438.538 1503.65 -366.654 1479.55C-360.231 1477.41 -353.836 1475.58 -347.443 1474.09C-282.392 1458.79 -221.014 1474.67 -164.824 1496.21C-154.026 1500.36 -143.284 1504.76 -132.565 1509.2C-82.2817 1530.01 -31.7142 1551.78 25.2429 1555.96C43.6656 1557.33 62.2791 1556.8 81.1124 1554.46C208.61 1538.54 338.604 1439.87 450.701 1338.23C458.848 1330.84 466.991 1323.41 475.109 1315.96C595.492 1205.72 718.773 1100.12 846.399 1050.73C892.511 1032.89 939.818 1014.31 987.489 1020.16C1044.23 1026.98 1091 1064.57 1128.44 1104.29C1154 1131.34 1176.86 1160 1202.71 1185.13C1214.87 1196.93 1227.69 1207.91 1241.72 1217.68C1330.97 1279.86 1463.81 1282.61 1588.83 1237.97C1713.99 1193.27 1832.04 1106.62 1934.61 1002.3" stroke="url(#paint10_linear_302_103)" stroke-width="1.56225" stroke-miterlimit="10"/>
<path opacity="0.54" d="M-522.127 1680.43C-518.034 1601.5 -444.988 1525.44 -373.206 1500.55C-366.79 1498.31 -360.399 1496.43 -354.035 1494.87C-289.034 1478.81 -227.449 1493.77 -170.949 1514.47C-160.088 1518.47 -149.262 1522.68 -138.505 1526.95C-87.953 1547.03 -37.1329 1568.2 19.874 1572.03C38.3122 1573.26 56.9224 1572.69 75.7744 1570.26C203.382 1553.78 332.944 1454.88 444.433 1352.54C452.529 1345.12 460.618 1337.6 468.707 1330.08C588.256 1219.05 710.121 1112.35 836.449 1058.87C883.4 1039 931.785 1017.92 980.802 1023.08C1039.18 1029.12 1086.82 1068.4 1124.12 1110.15C1149.58 1138.57 1172.06 1168.86 1197.69 1195.53C1209.73 1208.05 1222.52 1219.74 1236.6 1230.17C1326.07 1296.48 1462.5 1300.14 1590.39 1254.06C1718.43 1207.93 1838.78 1118 1943.35 1010.74" stroke="url(#paint11_linear_302_103)" stroke-width="1.56225" stroke-miterlimit="10"/>
<path opacity="0.54" d="M-527.89 1702.29C-523.863 1623.46 -451.41 1547.29 -379.781 1521.58C-373.369 1519.29 -366.984 1517.31 -360.601 1515.67C-295.65 1498.85 -233.837 1512.86 -177.002 1532.72C-166.056 1536.54 -155.213 1540.62 -144.393 1544.74C-93.5734 1564.08 -42.526 1584.64 14.5306 1588.11C32.9621 1589.25 51.6132 1588.56 70.4363 1586.06C198.131 1569.07 327.288 1469.94 438.166 1366.85C446.233 1359.37 454.271 1351.82 462.283 1344.25C581.019 1232.38 701.459 1124.44 826.498 1067.02C874.312 1045.08 923.756 1021.59 974.118 1026.06C1034.15 1031.29 1082.63 1072.29 1119.83 1116.07C1145.21 1145.89 1167.29 1177.83 1192.73 1206C1204.7 1219.25 1217.41 1231.65 1231.5 1242.72C1321.19 1313.21 1461.19 1317.77 1591.99 1270.22C1722.93 1222.62 1845.55 1129.46 1952.1 1019.24" stroke="url(#paint12_linear_302_103)" stroke-width="1.56225" stroke-miterlimit="10"/>
<path opacity="0.54" d="M-533.633 1724.12C-529.676 1645.34 -457.838 1569.1 -386.311 1542.6C-379.927 1540.24 -373.546 1538.21 -367.169 1536.47C-302.266 1518.94 -240.249 1531.99 -183.079 1551.01C-172.07 1554.68 -161.168 1558.56 -150.307 1562.56C-99.2184 1581.17 -47.896 1601.1 9.16267 1604.23C27.5874 1605.27 46.2318 1604.48 65.0738 1601.89C192.83 1584.37 321.629 1485 431.874 1381.2C439.864 1373.67 447.873 1366.05 455.835 1358.44C573.736 1245.78 692.743 1136.49 816.526 1075.26C865.174 1051.18 915.702 1025.29 967.435 1029.09C1029.12 1033.5 1078.45 1076.22 1115.5 1122.07C1140.75 1153.29 1162.47 1186.82 1187.69 1216.53C1199.56 1230.48 1212.23 1243.57 1226.34 1255.32C1316.25 1329.96 1459.83 1335.42 1593.51 1286.43C1727.33 1237.4 1852.25 1140.96 1960.8 1027.8" stroke="url(#paint13_linear_302_103)" stroke-width="1.56225" stroke-miterlimit="10"/>
<path opacity="0.54" d="M-539.396 1745.93C-535.506 1667.24 -464.287 1590.88 -392.909 1563.61C-386.554 1561.18 -380.153 1559.07 -373.806 1557.26C-308.953 1538.98 -246.707 1551.07 -189.203 1569.26C-178.155 1572.76 -167.165 1576.51 -156.218 1580.33C-104.858 1598.26 -53.2865 1617.53 3.79629 1620.3C22.2364 1621.2 40.8775 1620.35 59.7161 1617.72C187.56 1599.68 315.954 1500.09 425.612 1395.56C433.574 1387.96 441.532 1380.3 449.416 1372.65C566.483 1259.18 684.073 1148.42 806.581 1083.45C856.085 1057.21 907.653 1028.98 960.731 1032.1C1024.05 1035.73 1074.22 1080.12 1111.16 1128.01C1136.33 1160.62 1157.65 1195.75 1182.69 1227.02C1194.43 1241.7 1207.07 1255.5 1221.23 1267.9C1311.37 1346.68 1458.5 1353.08 1595.08 1302.62C1731.81 1252.12 1859 1152.44 1969.55 1036.35" stroke="url(#paint14_linear_302_103)" stroke-width="1.56225" stroke-miterlimit="10"/>
<path opacity="0.54" d="M-545.136 1767.76C-541.316 1689.12 -470.687 1612.7 -399.461 1584.6C-393.088 1582.09 -386.716 1579.91 -380.372 1578.05C-315.544 1559.04 -253.116 1570.19 -195.281 1587.5C-184.17 1590.85 -173.142 1594.43 -162.132 1598.1C-110.504 1615.29 -58.7052 1633.95 -1.57268 1636.37C16.8607 1637.16 35.495 1636.22 54.3524 1633.51C182.306 1614.91 310.294 1515.1 419.319 1409.86C427.229 1402.22 435.111 1394.51 442.989 1386.76C559.221 1272.5 675.337 1160.12 796.605 1091.58C846.913 1063.14 899.594 1032.58 954.044 1035.03C1019.01 1037.84 1070.04 1083.95 1106.84 1133.87C1131.91 1167.85 1152.85 1204.6 1177.67 1237.41C1189.34 1252.82 1201.88 1267.31 1216.08 1280.37C1306.43 1363.33 1457.15 1370.59 1596.62 1318.7C1736.23 1266.76 1865.72 1163.81 1978.26 1044.77" stroke="url(#paint15_linear_302_103)" stroke-width="1.56225" stroke-miterlimit="10"/>
<path opacity="0.54" d="M-550.9 1789.62C-547.147 1711.09 -477.114 1634.5 -406.012 1605.65C-399.668 1603.07 -393.325 1600.82 -386.962 1598.88C-322.185 1579.11 -259.55 1589.35 -201.38 1605.82C-190.184 1608.99 -179.092 1612.42 -168.045 1615.92C-116.149 1632.38 -64.0747 1650.4 -6.94019 1652.49C11.5087 1653.15 30.1396 1652.16 48.9903 1649.34C177.031 1630.23 304.614 1530.19 413.028 1424.2C420.909 1416.5 428.739 1408.76 436.54 1400.95C551.939 1285.89 666.554 1171.89 786.63 1099.76C837.74 1069.07 891.541 1036.28 947.336 1038.04C1013.96 1040.03 1065.83 1087.87 1102.53 1139.83C1127.52 1175.2 1148.03 1213.59 1172.66 1247.9C1184.21 1264.04 1196.72 1279.24 1210.94 1292.94C1301.52 1380.04 1455.79 1388.24 1598.17 1334.88C1740.68 1281.46 1872.44 1175.28 1986.99 1053.3" stroke="url(#paint16_linear_302_103)" stroke-width="1.56225" stroke-miterlimit="10"/>
<path opacity="0.54" d="M-556.643 1811.45C-552.933 1732.98 -483.541 1656.31 -412.589 1626.68C-406.248 1624.05 -399.912 1621.7 -393.552 1619.71C-328.848 1599.22 -265.962 1608.47 -207.456 1624.11C-196.197 1627.13 -185.068 1630.39 -173.957 1633.74C-121.793 1649.47 -69.4661 1666.89 -12.3074 1668.61C6.13472 1669.17 24.7845 1668.09 43.6539 1665.19C171.782 1645.56 298.959 1545.3 406.762 1438.57C414.592 1430.83 422.368 1423.01 430.118 1415.17C544.682 1299.3 657.716 1183.57 776.659 1107.99C828.566 1075 883.488 1039.98 940.606 1041.09C1008.86 1042.3 1061.6 1091.82 1098.14 1145.84C1123.03 1182.59 1143.16 1222.59 1167.6 1258.46C1179.08 1275.32 1191.52 1291.24 1205.78 1305.6C1296.56 1396.87 1454.44 1405.94 1599.69 1351.14C1745.09 1296.29 1879.14 1186.84 1995.66 1061.9" stroke="url(#paint17_linear_302_103)" stroke-width="1.56225" stroke-miterlimit="10"/>
<path opacity="0.54" d="M-562.406 1833.26C-558.789 1754.87 -489.964 1678.11 -419.139 1647.67C-412.804 1644.94 -406.472 1642.55 -400.141 1640.49C-335.462 1619.26 -272.394 1627.57 -213.554 1642.38C-202.257 1645.23 -191.017 1648.33 -179.891 1651.54C-127.458 1666.54 -74.9044 1683.34 -17.6704 1684.72C0.765004 1685.18 19.4302 1683.97 38.2964 1681.02C166.508 1660.82 293.306 1560.36 400.475 1452.91C408.276 1445.11 416.001 1437.25 423.675 1429.36C537.404 1312.69 648.877 1195.15 766.689 1116.17C819.369 1080.85 875.413 1043.65 933.925 1044.06C1003.83 1044.46 1057.44 1095.67 1093.83 1151.74C1118.62 1189.91 1138.39 1231.51 1162.57 1268.93C1173.95 1286.5 1186.31 1303.14 1200.62 1318.14C1291.65 1413.58 1453.06 1423.56 1601.24 1367.26C1749.52 1310.98 1885.87 1198.25 2004.39 1070.38" stroke="url(#paint18_linear_302_103)" stroke-width="1.56225" stroke-miterlimit="10"/>
<path opacity="0.54" d="M-568.146 1855.09C-564.574 1776.77 -496.39 1699.91 -425.692 1668.67C-419.386 1665.87 -413.057 1663.43 -406.733 1661.26C-342.104 1639.28 -278.807 1646.64 -219.632 1660.62C-208.272 1663.32 -196.995 1666.25 -185.758 1669.3C-133.079 1683.59 -80.2277 1699.73 -22.9696 1700.74C-4.51871 1701.07 14.1431 1699.81 32.9803 1696.79C161.28 1676.07 287.646 1575.37 394.255 1467.21C401.98 1459.35 409.701 1451.44 417.346 1443.48C530.24 1326.02 640.053 1206.65 756.811 1124.32C810.212 1086.65 867.454 1047.27 927.314 1047.04C998.878 1046.62 1053.34 1099.55 1089.59 1157.65C1114.3 1197.21 1133.67 1240.41 1157.63 1279.38C1168.91 1297.69 1181.23 1315.02 1195.58 1330.68C1286.84 1430.26 1451.82 1441.15 1602.88 1383.41C1754.06 1325.65 1892.71 1209.71 2013.21 1078.87" stroke="url(#paint19_linear_302_103)" stroke-width="1.56225" stroke-miterlimit="10"/>
<path opacity="0.54" d="M-573.911 1876.96C-570.43 1798.72 -502.839 1721.75 -432.268 1689.71C-425.966 1686.86 -419.644 1684.31 -413.323 1682.1C-348.741 1659.41 -285.241 1665.8 -225.734 1678.89C-214.289 1681.41 -202.97 1684.22 -191.696 1687.1C-138.749 1700.66 -85.6448 1716.2 -28.3624 1716.85C-9.9183 1717.07 8.73682 1715.71 27.5928 1712.61C155.98 1691.37 281.963 1590.41 387.938 1481.54C395.634 1473.62 403.279 1465.66 410.872 1457.66C522.907 1339.39 631.034 1218.16 746.789 1132.52C800.911 1092.49 859.353 1050.99 920.555 1050.02C993.751 1048.82 1049.08 1103.44 1085.2 1163.61C1109.81 1204.55 1128.8 1249.37 1152.57 1289.89C1163.75 1308.91 1176.02 1326.97 1190.39 1343.27C1281.86 1447.02 1450.41 1458.81 1604.37 1399.6C1758.44 1340.41 1899.41 1221.16 2021.88 1087.42" stroke="url(#paint20_linear_302_103)" stroke-width="1.56225" stroke-miterlimit="10"/>
<path opacity="0.54" d="M-579.651 1898.78C-576.215 1820.61 -509.218 1743.53 -438.818 1710.75C-432.545 1707.83 -426.203 1705.2 -419.912 1702.92C-355.38 1679.48 -291.651 1684.92 -231.832 1697.21C-220.323 1699.58 -208.945 1702.19 -197.607 1704.92C-144.366 1717.77 -91.0605 1732.67 -33.7284 1732.96C-15.2689 1733.06 3.38285 1731.65 22.2577 1728.46C150.754 1706.67 276.309 1605.52 381.674 1495.91C389.318 1487.95 396.934 1479.92 404.451 1471.87C515.673 1352.77 622.037 1229.64 736.841 1140.71C791.656 1098.27 851.323 1054.65 913.874 1053.05C988.723 1051.03 1044.9 1107.37 1080.89 1169.57C1105.42 1211.9 1123.98 1258.35 1147.56 1300.38C1158.64 1320.1 1170.84 1338.88 1185.25 1355.83C1276.94 1463.73 1449.05 1476.41 1605.92 1415.78C1762.89 1355.12 1906.13 1232.63 2030.6 1095.95" stroke="url(#paint21_linear_302_103)" stroke-width="1.56225" stroke-miterlimit="10"/>
<path opacity="0.54" d="M-585.417 1920.59C-582.073 1842.5 -515.668 1765.32 -445.396 1731.73C-439.104 1728.73 -432.814 1726.07 -426.529 1723.69C-362.048 1699.49 -298.111 1704.01 -237.935 1715.43C-226.389 1717.63 -214.922 1720.11 -203.546 1722.68C-150.037 1734.79 -96.4789 1749.09 -39.1227 1749.01C-20.6698 1749.01 -1.99928 1747.51 16.8688 1744.23C145.453 1721.92 270.625 1620.51 375.356 1510.18C382.971 1502.16 390.51 1494.08 397.976 1486C508.364 1366.09 612.889 1241.02 726.817 1148.86C782.277 1104.01 843.195 1058.3 907.139 1056C983.668 1053.17 1040.66 1111.22 1076.52 1175.45C1100.93 1219.18 1119.13 1267.22 1142.52 1310.8C1153.51 1331.28 1165.65 1350.75 1180.11 1368.35C1272.03 1480.39 1447.69 1494.01 1607.46 1431.91C1767.31 1369.81 1912.85 1244.05 2039.3 1104.41" stroke="url(#paint22_linear_302_103)" stroke-width="1.56225" stroke-miterlimit="10"/>
<path opacity="0.54" d="M-591.158 1942.42C-587.858 1864.4 -522.094 1787.13 -451.923 1752.75C-445.66 1749.68 -439.377 1746.91 -433.07 1744.5C-368.614 1719.56 -304.473 1723.11 -243.985 1733.74C-232.375 1735.79 -220.848 1738.07 -209.432 1740.52C-155.677 1751.92 -101.821 1765.56 -44.4629 1765.15C-25.9946 1765.01 -7.35292 1763.45 11.534 1760.08C140.18 1737.24 264.972 1635.62 369.091 1524.55C376.656 1516.49 384.166 1508.34 391.577 1500.18C501.13 1379.47 603.794 1252.48 716.892 1157.03C772.967 1109.7 835.188 1061.93 900.455 1058.97C978.616 1055.37 1036.48 1115.1 1072.23 1181.37C1096.56 1226.5 1114.35 1276.14 1137.54 1321.26C1148.42 1342.44 1160.51 1362.6 1174.99 1380.89C1267.12 1497.1 1446.37 1511.59 1609.03 1448.05C1771.76 1384.47 1919.6 1255.49 2048.04 1112.91" stroke="url(#paint23_linear_302_103)" stroke-width="1.56225" stroke-miterlimit="10"/>
<path opacity="0.54" d="M-596.92 1964.28C-593.712 1886.34 -528.516 1808.98 -458.52 1773.81C-452.286 1770.67 -445.984 1767.82 -439.706 1765.34C-375.322 1739.68 -310.953 1742.28 -250.133 1752.02C-238.46 1753.92 -226.87 1756.05 -215.368 1758.32C-161.345 1768.99 -107.262 1782.01 -49.854 1781.25C-31.3924 1781.01 -12.732 1779.36 6.17372 1775.91C134.929 1752.52 259.293 1650.71 362.802 1538.89C370.337 1530.77 377.771 1522.57 385.131 1514.37C493.85 1392.87 594.575 1263.9 706.922 1165.25C763.591 1115.49 827.162 1065.64 893.775 1062C973.59 1057.58 1032.3 1119.03 1067.9 1187.37C1092.12 1233.86 1109.54 1285.12 1132.5 1331.79C1143.29 1353.72 1155.33 1374.56 1169.85 1393.51C1262.21 1513.86 1445.02 1529.28 1610.58 1464.28C1776.19 1399.25 1926.32 1267.01 2056.77 1121.49" stroke="url(#paint24_linear_302_103)" stroke-width="1.56225" stroke-miterlimit="10"/>
<path opacity="0.54" d="M-602.66 1986.11C-599.496 1908.24 -534.941 1830.78 -465.047 1794.82C-458.794 1791.6 -452.543 1788.71 -446.223 1786.12C-381.865 1759.72 -317.292 1761.35 -256.137 1770.26C-244.405 1771.96 -232.773 1773.97 -221.208 1776.09C-166.917 1786.03 -112.581 1798.45 -55.1236 1797.33C-36.6688 1796.99 -17.9929 1795.21 0.887301 1791.74C129.73 1767.83 253.711 1665.77 356.611 1553.26C364.096 1545.09 371.478 1536.86 378.784 1528.58C486.668 1406.28 585.408 1275.36 697.049 1173.45C754.282 1121.18 819.184 1069.34 887.168 1065.03C968.637 1059.79 1028.2 1122.96 1063.66 1193.32C1087.81 1241.21 1104.82 1294.13 1127.59 1342.29C1138.28 1364.93 1150.27 1386.51 1164.81 1406.09C1257.38 1530.62 1443.78 1546.91 1612.27 1480.45C1780.77 1413.99 1933.19 1278.47 2065.64 1130.02" stroke="url(#paint25_linear_302_103)" stroke-width="1.56225" stroke-miterlimit="10"/>
<path opacity="0.54" d="M-608.426 2007.92C-605.355 1930.13 -541.345 1852.55 -471.626 1815.8C-465.402 1812.51 -459.132 1809.54 -452.842 1806.88C-388.534 1779.73 -323.753 1780.44 -262.264 1788.51C-250.468 1790.06 -238.751 1791.89 -227.171 1793.87C-172.611 1803.08 -118.001 1814.87 -60.5411 1813.42C-42.0708 1812.94 -23.3982 1811.11 -4.52477 1807.54C124.405 1783.11 247.981 1680.83 350.27 1567.57C357.7 1559.32 365.031 1551.06 372.308 1542.71C479.358 1419.6 576.064 1286.75 687.024 1181.6C744.8 1126.86 811.077 1072.95 880.407 1067.96C963.507 1061.94 1023.94 1126.8 1059.27 1199.18C1083.31 1248.44 1099.94 1302.98 1122.5 1352.69C1133.09 1376.02 1145.01 1398.32 1159.59 1418.56C1252.39 1547.23 1442.36 1564.42 1613.74 1496.53C1785.14 1428.6 1939.83 1289.84 2074.28 1138.45" stroke="url(#paint26_linear_302_103)" stroke-width="1.56225" stroke-miterlimit="10"/>
<path opacity="0.54" d="M-614.167 2029.75C-611.14 1952.03 -547.771 1874.35 -478.179 1836.8C-471.958 1833.46 -465.695 1830.39 -459.434 1827.66C-395.173 1799.8 -330.189 1799.55 -268.342 1806.75C-256.484 1808.15 -244.729 1809.82 -233.063 1811.61C-178.235 1820.08 -123.398 1831.25 -65.8884 1829.45C-47.4248 1828.88 -28.7334 1826.97 -9.8411 1823.31C119.176 1798.36 242.343 1695.8 344.024 1581.85C351.403 1573.57 358.705 1565.24 365.906 1556.83C472.121 1432.93 566.72 1298.14 677.095 1189.71C735.362 1132.46 803.069 1076.58 873.744 1070.9C958.499 1064.07 1019.8 1130.61 1054.98 1205.11C1078.92 1255.79 1095.17 1311.9 1117.54 1363.16C1128.04 1387.25 1139.9 1410.24 1154.53 1431.13C1247.55 1563.95 1441.08 1582.07 1615.36 1512.71C1789.64 1443.34 1946.63 1301.31 2083.08 1146.98" stroke="url(#paint27_linear_302_103)" stroke-width="1.56225" stroke-miterlimit="10"/>
<path opacity="0.54" d="M-619.932 2051.61C-616.997 1973.97 -554.221 1896.19 -484.752 1857.88C-478.561 1854.47 -472.301 1851.36 -466.021 1848.54C-401.81 1819.93 -336.597 1818.72 -274.438 1825.13C-262.516 1826.37 -250.676 1827.85 -238.995 1829.52C-183.895 1837.31 -128.808 1847.83 -71.2747 1845.66C-52.7957 1844.95 -34.1332 1842.97 -15.2221 1839.23C113.879 1813.71 236.644 1710.98 337.714 1596.28C345.064 1587.93 352.289 1579.55 359.438 1571.11C464.819 1446.41 557.264 1309.69 667.079 1198.01C725.838 1138.26 794.972 1080.35 867.018 1074C953.426 1066.35 1015.57 1134.62 1050.62 1211.14C1074.48 1263.21 1090.33 1320.92 1112.48 1373.72C1122.88 1398.51 1134.7 1422.24 1149.34 1443.77C1242.57 1580.76 1439.7 1599.75 1616.86 1528.95C1794.04 1458.12 1953.31 1312.85 2091.73 1155.56" stroke="url(#paint28_linear_302_103)" stroke-width="1.56225" stroke-miterlimit="10"/>
<path opacity="0.54" d="M-625.698 2073.43C-622.807 1995.85 -560.646 1917.99 -491.331 1878.86C-485.145 1875.35 -478.889 1872.18 -472.638 1869.3C-408.478 1839.94 -343.058 1837.8 -280.567 1843.33C-268.586 1844.38 -256.705 1845.74 -244.913 1847.24C-189.545 1854.29 -134.183 1864.18 -76.6471 1861.68C-58.1748 1860.87 -39.4935 1858.8 -20.5891 1854.96C108.599 1828.93 230.981 1725.94 331.417 1610.53C338.716 1602.14 345.913 1593.69 352.985 1585.2C457.532 1459.71 547.775 1321.08 657.1 1206.09C716.276 1143.83 786.888 1083.93 860.279 1076.89C948.32 1068.46 1011.34 1138.41 1046.25 1216.96C1070.01 1270.4 1085.47 1329.74 1107.39 1384.11C1117.72 1409.62 1129.43 1434.05 1144.12 1456.23C1237.58 1597.37 1438.26 1617.3 1618.32 1545.03C1798.39 1472.76 1959.95 1324.22 2100.37 1163.98" stroke="url(#paint29_linear_302_103)" stroke-width="1.56225" stroke-miterlimit="10"/>
<path opacity="0.54" d="M-631.437 2095.26C-628.613 2017.78 -567.071 1939.79 -497.857 1899.87C-491.675 1896.32 -485.451 1893.03 -479.177 1890.11C-415.042 1860.01 -349.418 1856.91 -286.615 1861.63C-274.57 1862.53 -262.626 1863.75 -250.797 1865.08C-195.161 1871.4 -139.571 1880.67 -81.986 1877.81C-63.4949 1876.92 -44.8459 1874.74 -25.9193 1870.87C103.357 1844.31 225.333 1741.1 325.183 1624.96C332.453 1616.51 339.573 1608.01 346.617 1599.45C450.351 1473.12 538.347 1332.66 647.182 1214.35C706.777 1149.58 778.889 1087.66 853.651 1079.95C943.346 1070.71 1007.21 1142.38 1041.99 1222.95C1065.67 1277.79 1080.71 1338.76 1102.46 1394.66C1112.66 1420.9 1124.35 1446.03 1139.09 1468.87C1232.77 1614.15 1437.03 1634.98 1619.97 1561.27C1802.94 1487.53 1966.8 1335.77 2109.2 1172.58" stroke="url(#paint30_linear_302_103)" stroke-width="1.56225" stroke-miterlimit="10"/>
<path opacity="0.54" d="M-637.177 2117.08C-634.177 2032.76 -562.151 1947.65 -485.768 1910.89C-409.408 1874.16 -330.554 1875.45 -256.71 1882.85C-182.866 1890.25 -109.083 1902.94 -31.2569 1886.67C107.493 1857.61 237.316 1740.71 340.168 1613.59C443.067 1486.47 528.765 1344.13 637.184 1222.52C697.171 1155.22 770.812 1091.34 846.92 1082.95C938.268 1072.88 1002.98 1146.28 1037.63 1228.93C1072.28 1311.58 1087.7 1407.9 1133.9 1481.45C1227.79 1630.91 1435.62 1652.64 1621.47 1577.47C1807.32 1502.29 1973.48 1347.26 2117.88 1181.13" stroke="url(#paint31_linear_302_103)" stroke-width="1.56225" stroke-miterlimit="10"/>
</g>
</g>
<defs>
<linearGradient id="paint0_linear_302_103" x1="1847.37" y1="841.499" x2="-466.093" y2="864.714" gradientUnits="userSpaceOnUse">
<stop stop-color="#7ED4EF"/>
<stop offset="0.2294" stop-color="#66BFE6"/>
<stop offset="0.711" stop-color="#298BD0"/>
<stop offset="1" stop-color="#0169C2"/>
</linearGradient>
<linearGradient id="paint1_linear_302_103" x1="1856.18" y1="857.083" x2="-471.906" y2="880.445" gradientUnits="userSpaceOnUse">
<stop stop-color="#7ED4EF"/>
<stop offset="0.2294" stop-color="#66BFE6"/>
<stop offset="0.711" stop-color="#298BD0"/>
<stop offset="1" stop-color="#0169C2"/>
</linearGradient>
<linearGradient id="paint2_linear_302_103" x1="1864.99" y1="872.667" x2="-477.721" y2="896.176" gradientUnits="userSpaceOnUse">
<stop stop-color="#7ED4EF"/>
<stop offset="0.2294" stop-color="#66BFE6"/>
<stop offset="0.711" stop-color="#298BD0"/>
<stop offset="1" stop-color="#0169C2"/>
</linearGradient>
<linearGradient id="paint3_linear_302_103" x1="1873.77" y1="886.019" x2="-483.559" y2="909.674" gradientUnits="userSpaceOnUse">
<stop stop-color="#7ED4EF"/>
<stop offset="0.2294" stop-color="#66BFE6"/>
<stop offset="0.711" stop-color="#298BD0"/>
<stop offset="1" stop-color="#0169C2"/>
</linearGradient>
<linearGradient id="paint4_linear_302_103" x1="1882.52" y1="895.559" x2="-489.432" y2="919.361" gradientUnits="userSpaceOnUse">
<stop stop-color="#7ED4EF"/>
<stop offset="0.2294" stop-color="#66BFE6"/>
<stop offset="0.711" stop-color="#298BD0"/>
<stop offset="1" stop-color="#0169C2"/>
</linearGradient>
<linearGradient id="paint5_linear_302_103" x1="1891.26" y1="904.877" x2="-495.31" y2="928.826" gradientUnits="userSpaceOnUse">
<stop stop-color="#7ED4EF"/>
<stop offset="0.2294" stop-color="#66BFE6"/>
<stop offset="0.711" stop-color="#298BD0"/>
<stop offset="1" stop-color="#0169C2"/>
</linearGradient>
<linearGradient id="paint6_linear_302_103" x1="1900" y1="913.95" x2="-501.189" y2="938.045" gradientUnits="userSpaceOnUse">
<stop stop-color="#7ED4EF"/>
<stop offset="0.2294" stop-color="#66BFE6"/>
<stop offset="0.711" stop-color="#298BD0"/>
<stop offset="1" stop-color="#0169C2"/>
</linearGradient>
<linearGradient id="paint7_linear_302_103" x1="1908.74" y1="922.763" x2="-507.071" y2="947.005" gradientUnits="userSpaceOnUse">
<stop stop-color="#7ED4EF"/>
<stop offset="0.2294" stop-color="#66BFE6"/>
<stop offset="0.711" stop-color="#298BD0"/>
<stop offset="1" stop-color="#0169C2"/>
</linearGradient>
<linearGradient id="paint8_linear_302_103" x1="1917.47" y1="931.015" x2="-512.956" y2="955.404" gradientUnits="userSpaceOnUse">
<stop stop-color="#7ED4EF"/>
<stop offset="0.2294" stop-color="#66BFE6"/>
<stop offset="0.711" stop-color="#298BD0"/>
<stop offset="1" stop-color="#0169C2"/>
</linearGradient>
<linearGradient id="paint9_linear_302_103" x1="1926.19" y1="938.815" x2="-518.853" y2="963.351" gradientUnits="userSpaceOnUse">
<stop stop-color="#7ED4EF"/>
<stop offset="0.2294" stop-color="#66BFE6"/>
<stop offset="0.711" stop-color="#298BD0"/>
<stop offset="1" stop-color="#0169C2"/>
</linearGradient>
<linearGradient id="paint10_linear_302_103" x1="1934.92" y1="946.329" x2="-524.746" y2="971.013" gradientUnits="userSpaceOnUse">
<stop stop-color="#7ED4EF"/>
<stop offset="0.2294" stop-color="#66BFE6"/>
<stop offset="0.711" stop-color="#298BD0"/>
<stop offset="1" stop-color="#0169C2"/>
</linearGradient>
<linearGradient id="paint11_linear_302_103" x1="1943.64" y1="953.654" x2="-530.643" y2="978.483" gradientUnits="userSpaceOnUse">
<stop stop-color="#7ED4EF"/>
<stop offset="0.2294" stop-color="#66BFE6"/>
<stop offset="0.711" stop-color="#298BD0"/>
<stop offset="1" stop-color="#0169C2"/>
</linearGradient>
<linearGradient id="paint12_linear_302_103" x1="1952.36" y1="960.841" x2="-536.541" y2="985.816" gradientUnits="userSpaceOnUse">
<stop stop-color="#7ED4EF"/>
<stop offset="0.2294" stop-color="#66BFE6"/>
<stop offset="0.711" stop-color="#298BD0"/>
<stop offset="1" stop-color="#0169C2"/>
</linearGradient>
<linearGradient id="paint13_linear_302_103" x1="1961.07" y1="967.926" x2="-542.443" y2="993.049" gradientUnits="userSpaceOnUse">
<stop stop-color="#7ED4EF"/>
<stop offset="0.2294" stop-color="#66BFE6"/>
<stop offset="0.711" stop-color="#298BD0"/>
<stop offset="1" stop-color="#0169C2"/>
</linearGradient>
<linearGradient id="paint14_linear_302_103" x1="1969.79" y1="974.923" x2="-548.34" y2="1000.19" gradientUnits="userSpaceOnUse">
<stop stop-color="#7ED4EF"/>
<stop offset="0.2294" stop-color="#66BFE6"/>
<stop offset="0.711" stop-color="#298BD0"/>
<stop offset="1" stop-color="#0169C2"/>
</linearGradient>
<linearGradient id="paint15_linear_302_103" x1="1978.51" y1="981.861" x2="-554.24" y2="1007.28" gradientUnits="userSpaceOnUse">
<stop stop-color="#7ED4EF"/>
<stop offset="0.2294" stop-color="#66BFE6"/>
<stop offset="0.711" stop-color="#298BD0"/>
<stop offset="1" stop-color="#0169C2"/>
</linearGradient>
<linearGradient id="paint16_linear_302_103" x1="1987.22" y1="988.75" x2="-560.144" y2="1014.31" gradientUnits="userSpaceOnUse">
<stop stop-color="#7ED4EF"/>
<stop offset="0.2294" stop-color="#66BFE6"/>
<stop offset="0.711" stop-color="#298BD0"/>
<stop offset="1" stop-color="#0169C2"/>
</linearGradient>
<linearGradient id="paint17_linear_302_103" x1="1995.94" y1="995.597" x2="-566.047" y2="1021.31" gradientUnits="userSpaceOnUse">
<stop stop-color="#7ED4EF"/>
<stop offset="0.2294" stop-color="#66BFE6"/>
<stop offset="0.711" stop-color="#298BD0"/>
<stop offset="1" stop-color="#0169C2"/>
</linearGradient>
<linearGradient id="paint18_linear_302_103" x1="2004.65" y1="1002.41" x2="-571.947" y2="1028.26" gradientUnits="userSpaceOnUse">
<stop stop-color="#7ED4EF"/>
<stop offset="0.2294" stop-color="#66BFE6"/>
<stop offset="0.711" stop-color="#298BD0"/>
<stop offset="1" stop-color="#0169C2"/>
</linearGradient>
<linearGradient id="paint19_linear_302_103" x1="2013.37" y1="1009.19" x2="-577.849" y2="1035.19" gradientUnits="userSpaceOnUse">
<stop stop-color="#7ED4EF"/>
<stop offset="0.2294" stop-color="#66BFE6"/>
<stop offset="0.711" stop-color="#298BD0"/>
<stop offset="1" stop-color="#0169C2"/>
</linearGradient>
<linearGradient id="paint20_linear_302_103" x1="2022.08" y1="1015.95" x2="-583.753" y2="1042.1" gradientUnits="userSpaceOnUse">
<stop stop-color="#7ED4EF"/>
<stop offset="0.2294" stop-color="#66BFE6"/>
<stop offset="0.711" stop-color="#298BD0"/>
<stop offset="1" stop-color="#0169C2"/>
</linearGradient>
<linearGradient id="paint21_linear_302_103" x1="2030.79" y1="1022.69" x2="-589.657" y2="1048.99" gradientUnits="userSpaceOnUse">
<stop stop-color="#7ED4EF"/>
<stop offset="0.2294" stop-color="#66BFE6"/>
<stop offset="0.711" stop-color="#298BD0"/>
<stop offset="1" stop-color="#0169C2"/>
</linearGradient>
<linearGradient id="paint22_linear_302_103" x1="2039.5" y1="1029.42" x2="-595.559" y2="1055.86" gradientUnits="userSpaceOnUse">
<stop stop-color="#7ED4EF"/>
<stop offset="0.2294" stop-color="#66BFE6"/>
<stop offset="0.711" stop-color="#298BD0"/>
<stop offset="1" stop-color="#0169C2"/>
</linearGradient>
<linearGradient id="paint23_linear_302_103" x1="2048.21" y1="1036.13" x2="-601.463" y2="1062.72" gradientUnits="userSpaceOnUse">
<stop stop-color="#7ED4EF"/>
<stop offset="0.2294" stop-color="#66BFE6"/>
<stop offset="0.711" stop-color="#298BD0"/>
<stop offset="1" stop-color="#0169C2"/>
</linearGradient>
<linearGradient id="paint24_linear_302_103" x1="2056.93" y1="1042.82" x2="-607.366" y2="1069.55" gradientUnits="userSpaceOnUse">
<stop stop-color="#7ED4EF"/>
<stop offset="0.2294" stop-color="#66BFE6"/>
<stop offset="0.711" stop-color="#298BD0"/>
<stop offset="1" stop-color="#0169C2"/>
</linearGradient>
<linearGradient id="paint25_linear_302_103" x1="2065.64" y1="1049.5" x2="-613.268" y2="1076.38" gradientUnits="userSpaceOnUse">
<stop stop-color="#7ED4EF"/>
<stop offset="0.2294" stop-color="#66BFE6"/>
<stop offset="0.711" stop-color="#298BD0"/>
<stop offset="1" stop-color="#0169C2"/>
</linearGradient>
<linearGradient id="paint26_linear_302_103" x1="2074.35" y1="1056.17" x2="-619.173" y2="1083.2" gradientUnits="userSpaceOnUse">
<stop stop-color="#7ED4EF"/>
<stop offset="0.2294" stop-color="#66BFE6"/>
<stop offset="0.711" stop-color="#298BD0"/>
<stop offset="1" stop-color="#0169C2"/>
</linearGradient>
<linearGradient id="paint27_linear_302_103" x1="2083.06" y1="1062.84" x2="-625.076" y2="1090.02" gradientUnits="userSpaceOnUse">
<stop stop-color="#7ED4EF"/>
<stop offset="0.2294" stop-color="#66BFE6"/>
<stop offset="0.711" stop-color="#298BD0"/>
<stop offset="1" stop-color="#0169C2"/>
</linearGradient>
<linearGradient id="paint28_linear_302_103" x1="2091.77" y1="1069.5" x2="-630.982" y2="1096.82" gradientUnits="userSpaceOnUse">
<stop stop-color="#7ED4EF"/>
<stop offset="0.2294" stop-color="#66BFE6"/>
<stop offset="0.711" stop-color="#298BD0"/>
<stop offset="1" stop-color="#0169C2"/>
</linearGradient>
<linearGradient id="paint29_linear_302_103" x1="2100.48" y1="1076.15" x2="-636.886" y2="1103.62" gradientUnits="userSpaceOnUse">
<stop stop-color="#7ED4EF"/>
<stop offset="0.2294" stop-color="#66BFE6"/>
<stop offset="0.711" stop-color="#298BD0"/>
<stop offset="1" stop-color="#0169C2"/>
</linearGradient>
<linearGradient id="paint30_linear_302_103" x1="2109.19" y1="1082.79" x2="-642.788" y2="1110.41" gradientUnits="userSpaceOnUse">
<stop stop-color="#7ED4EF"/>
<stop offset="0.2294" stop-color="#66BFE6"/>
<stop offset="0.711" stop-color="#298BD0"/>
<stop offset="1" stop-color="#0169C2"/>
</linearGradient>
<linearGradient id="paint31_linear_302_103" x1="2117.9" y1="1089.43" x2="-648.691" y2="1117.19" gradientUnits="userSpaceOnUse">
<stop stop-color="#7ED4EF"/>
<stop offset="0.2294" stop-color="#66BFE6"/>
<stop offset="0.711" stop-color="#298BD0"/>
<stop offset="1" stop-color="#0169C2"/>
</linearGradient>
<clipPath id="clip0_302_103">
<rect width="1175.69" height="2380.03" fill="white" transform="translate(0 0.905273)"/>
</clipPath>
</defs>
</svg>
