<svg width="569" height="607" viewBox="0 0 569 607" fill="none" xmlns="http://www.w3.org/2000/svg">
<g clip-path="url(#clip0_302_105)">
<path d="M492.842 144.918C452.69 104.623 389.313 101.826 332.358 101.586C289.651 101.407 245.904 101.384 205.549 115.441C165.195 129.498 128.149 160.602 119.049 202.276C108.954 248.677 134.47 294.621 159.053 335.28L223.028 441.154C240.887 470.647 260.09 501.511 290.513 517.776C326.744 537.149 373.178 531.027 407.763 508.803C442.347 486.579 465.999 450.406 480.457 412.01C496.865 368.453 498.853 322.463 510.911 278.046C523.63 231.102 531.092 183.322 492.842 144.918Z" fill="#A5B4B4"/>
<path d="M50.1042 229.272C44.908 275.266 57.7963 326.026 94.1961 354.869C122.726 377.433 160.92 383.438 197.338 385.331C213.957 386.216 233.436 385.013 242.913 371.392C251.795 358.646 247.399 341.319 242.167 326.707C219.81 264.218 187.567 204.409 146.513 152.127C90.128 80.3598 56.2152 175.177 50.1042 229.272Z" fill="#FC724D"/>
<path d="M347.252 127.546C363.663 147.821 394.194 155.07 417.989 144.415C466.047 122.903 462.74 44.8223 410.828 29.484C356.725 13.4462 312.704 84.9067 347.252 127.546Z" fill="#F1E1D1"/>
<path d="M326.503 503.394C319.647 503.407 312.819 502.514 306.198 500.736C270.868 491.205 247.806 458.45 228.961 428.492C206.178 392.273 184.211 354.877 163.673 317.379C143.71 280.905 126.86 242.145 138.655 205.755C146.218 182.439 165.358 162.245 192.559 148.901C216.63 137.076 243.287 131.969 269.035 127.026C302.385 120.625 336.869 114.007 371.532 116.177C410.403 118.595 443.667 132.566 465.184 155.519C491.584 183.671 502.354 228.359 494.007 275.078L492.578 274.822L494.007 275.078C489.434 300.649 479.067 324.082 469.035 346.733C463.561 359.092 457.9 371.87 453.218 384.904C439.731 422.479 422.881 449.949 400.192 471.352C382.503 488.051 355.365 503.394 326.503 503.394ZM357.873 118.649C328.087 118.649 298.41 124.344 269.586 129.877C244.024 134.782 217.562 139.85 193.84 151.505C178.497 159.029 151.288 176.201 141.419 206.646C129.95 241.997 146.567 280.091 166.22 315.992C186.727 353.451 208.663 390.786 231.445 426.95C249.996 456.435 272.661 488.671 306.982 497.931C341.877 507.338 376.998 489.275 398.235 469.26C420.582 448.182 437.191 421.069 450.524 383.943C455.237 370.817 460.921 357.992 466.411 345.578C476.373 323.106 486.677 299.859 491.188 274.59C499.373 228.77 488.859 185.003 463.103 157.518C442.068 135.077 409.494 121.415 371.337 119.091C366.865 118.781 362.369 118.649 357.881 118.649H357.873Z" fill="#DCDCDC"/>
<path d="M500.972 462.619C489.449 458.016 475.053 462.146 467.731 472.142C460.408 482.138 460.843 497.086 468.74 506.641C476.637 516.195 491.258 519.473 502.479 514.212C513.481 509.058 520.245 496.435 519.111 484.355C517.977 472.274 509.351 461.387 498.091 456.822" fill="#DCDCDC"/>
<path d="M446.192 267.435C429.709 270.828 411.842 278.343 405.915 294.093C401.52 305.794 405.133 319.292 412.255 329.587C419.376 339.883 429.477 347.557 439.441 355.136C448.601 362.07 457.963 369.099 468.803 372.904C479.644 376.709 492.407 376.826 501.938 370.42C509.63 365.241 514.237 356.626 517.787 348.064C524.739 331.437 540.102 291.397 526.673 274.4C511.986 255.807 465.771 263.386 446.192 267.435Z" fill="#0061FF"/>
</g>
<defs>
<clipPath id="clip0_302_105">
<rect width="569" height="606.632" fill="white" transform="translate(0 0.152222)"/>
</clipPath>
</defs>
</svg>
