<svg width="19" height="18" viewBox="0 0 19 18" fill="none" xmlns="http://www.w3.org/2000/svg">
<path fill-rule="evenodd" clip-rule="evenodd" d="M6.72125 1.4994H13.2193C15.76 1.4994 17.4613 3.2844 17.4613 5.9394V12.0676C17.4613 14.7151 15.76 16.4994 13.2193 16.4994H6.72125C4.1805 16.4994 2.47168 14.7151 2.47168 12.0676V5.9394C2.47168 3.2844 4.1805 1.4994 6.72125 1.4994ZM9.95908 6.79516C9.60682 6.79516 9.31452 6.50191 9.31452 6.14266C9.31452 5.77516 9.60682 5.48266 9.97407 5.48266C10.3338 5.48266 10.6261 5.77516 10.6261 6.14266C10.6261 6.50191 10.3338 6.79516 9.95908 6.79516ZM10.6185 11.8351C10.6185 12.1951 10.3262 12.4876 9.95895 12.4876C9.5992 12.4876 9.3069 12.1951 9.3069 11.8351V8.52014C9.3069 8.15939 9.5992 7.86014 9.95895 7.86014C10.3262 7.86014 10.6185 8.15939 10.6185 8.52014V11.8351Z" fill="#A6ABC8"/>
</svg>
