<svg width="26" height="27" viewBox="0 0 26 27" fill="none" xmlns="http://www.w3.org/2000/svg">
<g clip-path="url(#clip0_2_510)">
<path d="M25.9874 13.9443C25.9874 12.8541 25.899 12.0585 25.7075 11.2336H13.2588V16.1541H20.5659C20.4186 17.3769 19.6231 19.2184 17.8552 20.4558L17.8304 20.6206L21.7665 23.6698L22.0392 23.697C24.5436 21.384 25.9874 17.9809 25.9874 13.9443Z" fill="#4285F4"/>
<path d="M13.2588 26.9086C16.8387 26.9086 19.844 25.7299 22.0392 23.697L17.8552 20.4558C16.7356 21.2366 15.2329 21.7817 13.2588 21.7817C9.75255 21.7817 6.77666 19.4688 5.71584 16.2719L5.56035 16.2851L1.46759 19.4526L1.41406 19.6014C3.59441 23.9326 8.07301 26.9086 13.2588 26.9086Z" fill="#34A853"/>
<path d="M5.71604 16.2719C5.43613 15.447 5.27414 14.563 5.27414 13.6496C5.27414 12.7361 5.43613 11.8522 5.70131 11.0273L5.6939 10.8516L1.54984 7.63324L1.41426 7.69773C0.515633 9.49508 0 11.5134 0 13.6496C0 15.7858 0.515633 17.804 1.41426 19.6014L5.71604 16.2719Z" fill="#FBBC05"/>
<path d="M13.2588 5.5174C15.7485 5.5174 17.4279 6.59284 18.3856 7.49157L22.1275 3.83796C19.8294 1.7018 16.8387 0.390625 13.2588 0.390625C8.07301 0.390625 3.59441 3.36651 1.41406 7.69774L5.70112 11.0273C6.77667 7.83038 9.75255 5.5174 13.2588 5.5174Z" fill="#EB4335"/>
</g>
<defs>
<clipPath id="clip0_2_510">
<rect width="26" height="26.6094" fill="white" transform="translate(0 0.390625)"/>
</clipPath>
</defs>
</svg>
