<svg width="24" height="25" viewBox="0 0 24 25" fill="none" xmlns="http://www.w3.org/2000/svg">
<path d="M21 9.5V18.5C21 19.2956 20.6839 20.0587 20.1213 20.6213C19.5587 21.1839 18.7956 21.5 18 21.5H5C4.20435 21.5 3.44129 21.1839 2.87868 20.6213C2.31607 20.0587 2 19.2956 2 18.5V9.5C2 8.39 2.6 7.42 3.5 6.9L11.5 2.28L19.5 6.9C20.4 7.42 21 8.39 21 9.5ZM3.72 7.97L11.5 13L19.28 7.97L11.5 3.43L3.72 7.97ZM11.5 14.21L3.13 8.78C3.05 9 3 9.25 3 9.5V18.5C3 19.0304 3.21071 19.5391 3.58579 19.9142C3.96086 20.2893 4.46957 20.5 5 20.5H18C18.5304 20.5 19.0391 20.2893 19.4142 19.9142C19.7893 19.5391 20 19.0304 20 18.5V9.5C20 9.25 19.95 9 19.87 8.78L11.5 14.21Z" fill="black"/>
</svg>
