<svg width="12" height="12" viewBox="0 0 12 12" fill="none" xmlns="http://www.w3.org/2000/svg">
<path fill-rule="evenodd" clip-rule="evenodd" d="M6.02276 9.43007e-07C6.61611 0.000778592 7.09649 0.482417 7.09571 1.07577L7.09067 4.92564H10.9256C11.519 4.92564 12 5.40665 12 6C12 6.59336 11.519 7.07436 10.9256 7.07436H7.08785L7.0828 10.927C7.08202 11.5204 6.60039 12.0008 6.00703 12C5.41368 11.9992 4.9333 11.5176 4.93408 10.9242L4.93912 7.07436H1.07436C0.481008 7.07436 0 6.59336 0 6C0 5.40665 0.481008 4.92564 1.07436 4.92564H4.94194L4.94699 1.07295C4.94777 0.479601 5.42941 -0.000776779 6.02276 9.43007e-07Z" fill="#F0F0F0"/>
</svg>
