<svg width="50" height="51" viewBox="0 0 50 51" fill="none" xmlns="http://www.w3.org/2000/svg">
<circle cx="25" cy="25.5" r="25" fill="#FFDADA"/>
<path d="M23 17.5C24.0609 17.5 25.0783 17.9214 25.8284 18.6716C26.5786 19.4217 27 20.4391 27 21.5C27 22.5609 26.5786 23.5783 25.8284 24.3284C25.0783 25.0786 24.0609 25.5 23 25.5C21.9391 25.5 20.9217 25.0786 20.1716 24.3284C19.4214 23.5783 19 22.5609 19 21.5C19 20.4391 19.4214 19.4217 20.1716 18.6716C20.9217 17.9214 21.9391 17.5 23 17.5ZM23 27.5C27.42 27.5 31 29.29 31 31.5V33.5H15V31.5C15 29.29 18.58 27.5 23 27.5ZM33 25.5V20.5H35V26.5H33M33 30.5V28.5H35V30.5H33Z" fill="#E14848"/>
</svg>
