<svg width="50" height="51" viewBox="0 0 50 51" fill="none" xmlns="http://www.w3.org/2000/svg">
<circle cx="25" cy="25.5" r="25" fill="#FCD7CE"/>
<g clip-path="url(#clip0_130_663)">
<path d="M23.5821 28.0977L23.9373 28.1319L24.0851 27.8071C24.4386 27.0303 24.9417 26.3307 25.5656 25.7483C26.1896 25.1659 26.9221 24.7122 27.7215 24.413C28.5208 24.1138 29.3712 23.975 30.2242 24.0045C31.0772 24.034 31.916 24.2313 32.6928 24.585L32.6929 24.5851C33.4697 24.9386 34.1693 25.4417 34.7517 26.0656C35.3341 26.6896 35.7878 27.4221 36.087 28.2215C36.3862 29.0208 36.525 29.8712 36.4955 30.7242C36.466 31.5772 36.2687 32.416 35.915 33.1928L35.9145 33.1937C35.3998 34.3301 34.568 35.2937 33.519 35.9689C32.47 36.6441 31.2484 37.0021 30.0008 37H30C27.493 37 25.1987 35.551 24.1216 33.2853L23.9859 33H23.67H14.5V31.5138C14.5513 30.6375 15.145 29.8365 16.5636 29.1272C17.976 28.421 19.775 28.0396 22.0043 28C22.5458 28.0003 23.0624 28.0477 23.5821 28.0977ZM29.5 30.9012V28H30V30.32V30.6085L30.2498 30.7529L32.2572 31.9129L32.0067 32.3471L29.5 30.9012ZM22 18.0002C22.9946 18.0297 23.8058 18.3729 24.4564 19.0236C25.1045 19.6716 25.43 20.4806 25.43 21.5C25.43 22.5194 25.1045 23.3284 24.4564 23.9764C23.8075 24.6254 22.998 24.95 22 24.95C21.002 24.95 20.1925 24.6254 19.5436 23.9764C18.8955 23.3284 18.57 22.5194 18.57 21.5C18.57 20.4806 18.8955 19.6716 19.5436 19.0236C20.1942 18.3729 21.0054 18.0297 22 18.0002ZM30 36C31.4587 36 32.8576 35.4205 33.8891 34.3891C34.9205 33.3576 35.5 31.9587 35.5 30.5C35.5 29.0413 34.9205 27.6424 33.8891 26.6109C32.8576 25.5795 31.4587 25 30 25C28.5413 25 27.1424 25.5795 26.1109 26.6109C25.0795 27.6424 24.5 29.0413 24.5 30.5C24.5 31.9587 25.0795 33.3576 26.1109 34.3891C27.1424 35.4205 28.5413 36 30 36Z" fill="#FF4B1F" stroke="#FF4B1F"/>
</g>
<defs>
<clipPath id="clip0_130_663">
<rect width="24" height="24" fill="white" transform="translate(13 13.5)"/>
</clipPath>
</defs>
</svg>
