<svg width="50" height="51" viewBox="0 0 50 51" fill="none" xmlns="http://www.w3.org/2000/svg">
<circle cx="25" cy="25.5" r="25" fill="#CDFCF1"/>
<path d="M34.1 26L35.5 27.41L28.97 34L25.5 30.5L26.9 29.09L28.97 31.17L34.1 26ZM23 30.5L26 33.5H16V31.5C16 29.29 19.58 27.5 24 27.5L25.89 27.61L23 30.5ZM24 17.5C25.0609 17.5 26.0783 17.9214 26.8284 18.6716C27.5786 19.4217 28 20.4391 28 21.5C28 22.5609 27.5786 23.5783 26.8284 24.3284C26.0783 25.0786 25.0609 25.5 24 25.5C22.9391 25.5 21.9217 25.0786 21.1716 24.3284C20.4214 23.5783 20 22.5609 20 21.5C20 20.4391 20.4214 19.4217 21.1716 18.6716C21.9217 17.9214 22.9391 17.5 24 17.5Z" fill="#19A081"/>
</svg>
