<svg width="19" height="18" viewBox="0 0 19 18" fill="none" xmlns="http://www.w3.org/2000/svg">
<path fill-rule="evenodd" clip-rule="evenodd" d="M16.2637 10.1851C16.5318 10.3276 16.7386 10.5526 16.8841 10.7776C17.1675 11.2426 17.1445 11.8126 16.8688 12.3151L16.3326 13.2151C16.0492 13.6951 15.5207 13.9951 14.9769 13.9951C14.7088 13.9951 14.4101 13.9201 14.165 13.7701C13.9659 13.6426 13.7361 13.5976 13.491 13.5976C12.7327 13.5976 12.097 14.2201 12.074 14.9626C12.074 15.8251 11.3693 16.5001 10.4885 16.5001H9.44683C8.55834 16.5001 7.85368 15.8251 7.85368 14.9626C7.83836 14.2201 7.20263 13.5976 6.44435 13.5976C6.19159 13.5976 5.96181 13.6426 5.77032 13.7701C5.52522 13.9201 5.21885 13.9951 4.95843 13.9951C4.40695 13.9951 3.87845 13.6951 3.59505 13.2151L3.06655 12.3151C2.78316 11.8276 2.76784 11.2426 3.05124 10.7776C3.17379 10.5526 3.40357 10.3276 3.66399 10.1851C3.87845 10.0801 4.01632 9.90758 4.14653 9.70508C4.5295 9.06008 4.29972 8.21258 3.64867 7.83008C2.89039 7.40258 2.64529 6.45008 3.08187 5.70758L3.59505 4.82258C4.0393 4.08008 4.98906 3.81758 5.755 4.25258C6.42137 4.61258 7.28688 4.37258 7.67751 3.73508C7.80006 3.52508 7.869 3.30008 7.85368 3.07508C7.83836 2.78258 7.92261 2.50508 8.06814 2.28008C8.35154 1.81508 8.86472 1.51508 9.42385 1.50008H10.5038C11.0706 1.50008 11.5838 1.81508 11.8672 2.28008C12.0051 2.50508 12.097 2.78258 12.074 3.07508C12.0587 3.30008 12.1276 3.52508 12.2502 3.73508C12.6408 4.37258 13.5063 4.61258 14.1803 4.25258C14.9386 3.81758 15.896 4.08008 16.3326 4.82258L16.8458 5.70758C17.2901 6.45008 17.045 7.40258 16.279 7.83008C15.628 8.21258 15.3982 9.06008 15.7888 9.70508C15.9114 9.90758 16.0492 10.0801 16.2637 10.1851ZM7.79998 9.00758C7.79998 10.1851 8.77273 11.1226 9.97525 11.1226C11.1778 11.1226 12.1275 10.1851 12.1275 9.00758C12.1275 7.83008 11.1778 6.88508 9.97525 6.88508C8.77273 6.88508 7.79998 7.83008 7.79998 9.00758Z" fill="#A6ABC8"/>
</svg>
