<svg width="22" height="22" viewBox="0 0 22 22" fill="none" xmlns="http://www.w3.org/2000/svg">
<g clip-path="url(#clip0_2_475)">
<mask id="mask0_2_475" style="mask-type:luminance" maskUnits="userSpaceOnUse" x="0" y="0" width="22" height="22">
<path d="M11.0002 20.1667C12.2042 20.1682 13.3966 19.9318 14.509 19.4711C15.6213 19.0103 16.6317 18.3342 17.4819 17.4818C18.3344 16.6315 19.0105 15.6212 19.4712 14.5088C19.932 13.3965 20.1684 12.204 20.1668 11C20.1684 9.796 19.932 8.60355 19.4712 7.4912C19.0104 6.37884 18.3344 5.36851 17.4819 4.51825C16.6317 3.66577 15.6213 2.98971 14.509 2.52894C13.3966 2.06817 12.2042 1.83178 11.0002 1.83334C9.79616 1.8318 8.60372 2.06821 7.49137 2.52898C6.37901 2.98974 5.36868 3.66579 4.51842 4.51825C3.66595 5.36851 2.98991 6.37884 2.52914 7.4912C2.06838 8.60355 1.83197 9.796 1.8335 11C1.83194 12.204 2.06834 13.3965 2.52911 14.5088C2.98988 15.6212 3.66593 16.6315 4.51842 17.4818C5.36868 18.3342 6.37901 19.0103 7.49137 19.471C8.60372 19.9318 9.79616 20.1682 11.0002 20.1667Z" fill="white" stroke="white" stroke-width="2" stroke-linejoin="round"/>
<path d="M7.3335 11L10.0835 13.75L15.5835 8.25" stroke="black" stroke-width="2" stroke-linecap="round" stroke-linejoin="round"/>
</mask>
<g mask="url(#mask0_2_475)">
<path d="M0 0H22V22H0V0Z" fill="#4CAF50"/>
</g>
</g>
<defs>
<clipPath id="clip0_2_475">
<rect width="22" height="22" fill="white"/>
</clipPath>
</defs>
</svg>
